<svg id="project-darck" xmlns="http://www.w3.org/2000/svg" width="46.79" height="46.79" viewBox="0 0 46.79 46.79">
  <g id="Group_125" data-name="Group 125">
    <g id="Group_124" data-name="Group 124">
      <path id="Path_6" data-name="Path 6" d="M74.89,0H39.8a.78.78,0,0,0-.78.78v11.7h1.56V1.56H74.111V44.45a.767.767,0,0,1-.718.78c-.067,0-.134-.005-.2-.007-.138,0-.276-.007-.412-.021a.087.087,0,0,1-.034,0,5.467,5.467,0,0,1-4.84-4.835.25.25,0,0,0-.005-.034,5.434,5.434,0,0,1-.028-.558v-1.56a.78.78,0,0,0-.78-.78H40.578V23.395h-1.56V37.432H32.78a.78.78,0,0,0-.78.78v1.56a7.026,7.026,0,0,0,7.018,7.018h34.39A2.322,2.322,0,0,0,75.67,44.45V.78A.78.78,0,0,0,74.89,0ZM39.018,45.23a5.465,5.465,0,0,1-5.459-5.459v-.78H66.312v.78a7.2,7.2,0,0,0,.044.77c.007.068.02.133.03.2.026.189.057.377.1.561.014.065.032.129.048.193.048.188.1.373.164.555.018.052.037.1.056.156.071.193.151.382.239.568.019.038.036.078.055.113a6.582,6.582,0,0,0,.322.576c.016.025.03.051.045.078a7,7,0,0,0,.411.577l.025.034a7.19,7.19,0,0,0,.546.611,6.876,6.876,0,0,0,.522.468Z" transform="translate(-28.881)" fill="#231f20"/>
      <path id="Path_7" data-name="Path 7" d="M25.734,151.8a.78.78,0,0,0,.551-.228L29.4,148.45a.78.78,0,0,0,0-1.1l-3.119-3.119a.78.78,0,0,0-.551-.229H3.9a3.9,3.9,0,0,0,0,7.8Zm-.2-6.117,2.218,2.218-2.218,2.218-.554-2.218ZM6.239,145.56H23.956l-.39,1.56H7.8v1.56H23.566l.39,1.56H6.239ZM1.56,147.9A2.339,2.339,0,0,1,3.9,145.56h.78v4.679H3.9A2.339,2.339,0,0,1,1.56,147.9Z" transform="translate(0 -129.963)" fill="#231f20"/>
      <path id="Path_8" data-name="Path 8" d="M176.781,112.956h23.395a.78.78,0,0,0,.78-.78V88.782a.78.78,0,0,0-1.331-.551L176.23,111.625a.78.78,0,0,0,.551,1.331ZM199.4,90.664v2.017h-1.56v1.56h1.56V95.8h-1.56v1.56h1.56v1.56h-1.56v1.56h1.56v1.56h-1.56v1.56h1.56v1.56h-1.56v1.56h1.56v1.56h-1.56v1.56h1.56v1.56h-1.56v-1.56h-1.56v1.56h-1.56v-1.56h-1.56v1.56H191.6v-1.56h-1.56v1.56h-1.56v-1.56h-1.56v1.56h-1.56v-1.56H183.8v1.56h-1.56v-1.56h-1.56v1.56h-2.017Z" transform="translate(-158.845 -79.424)" fill="#231f20"/>
      <path id="Path_9" data-name="Path 9" d="M292.661,212.862h7.42a.78.78,0,0,0,.78-.78v-7.42a.78.78,0,0,0-1.331-.551l-7.42,7.42a.78.78,0,0,0,.551,1.331Zm6.64-6.317V211.3h-4.757Z" transform="translate(-263.43 -184.008)" fill="#231f20"/>
      <rect id="Rectangle_36" data-name="Rectangle 36" width="15.77" height="1.855" transform="translate(20.408 4.638)" fill="#231f20"/>
      <rect id="Rectangle_37" data-name="Rectangle 37" width="20.408" height="1.855" transform="translate(17.625 7.421)" fill="#231f20"/>
      <rect id="Rectangle_38" data-name="Rectangle 38" width="4.638" height="1.855" transform="translate(12.987 24.118)" fill="#231f20"/>
      <rect id="Rectangle_39" data-name="Rectangle 39" width="3.71" height="1.855" transform="translate(12.987 26.901)" fill="#231f20"/>
    </g>
  </g>
</svg>
